<svg width="12" height="10" viewBox="0 0 12 10" fill="none" xmlns="http://www.w3.org/2000/svg">
<path d="M6 10C5.82916 10 5.66446 9.94203 5.5361 9.83672C5.05133 9.43968 4.58395 9.06656 4.1716 8.73744L4.16949 8.73572C2.96054 7.77073 1.91656 6.93736 1.19019 6.11644C0.378204 5.19869 0 4.32854 0 3.37795C0 2.45438 0.338104 1.60232 0.951965 0.97863C1.57315 0.347563 2.42551 0 3.35229 0C4.04498 0 4.67935 0.205125 5.23773 0.609628C5.51953 0.81381 5.77496 1.0637 6 1.35518C6.22513 1.0637 6.48047 0.81381 6.76236 0.609628C7.32074 0.205125 7.95511 0 8.6478 0C9.57449 0 10.4269 0.347563 11.0481 0.97863C11.662 1.60232 12 2.45438 12 3.37795C12 4.32854 11.6219 5.19869 10.8099 6.11635C10.0835 6.93736 9.03964 7.77064 7.83087 8.73555C7.41779 9.06519 6.94968 9.43891 6.46381 9.83689C6.33554 9.94203 6.17075 10 6 10ZM3.35229 0.658423C2.62418 0.658423 1.95529 0.930607 1.46869 1.4249C0.974854 1.92665 0.70285 2.62023 0.70285 3.37795C0.70285 4.17744 1.02008 4.89246 1.73135 5.69633C2.41882 6.47335 3.44138 7.28956 4.62534 8.23466L4.62753 8.23637C5.04144 8.56679 5.51065 8.94136 5.99899 9.34132C6.49026 8.94059 6.96021 8.56541 7.37494 8.23449C8.55881 7.28939 9.58127 6.47335 10.2687 5.69633C10.9799 4.89246 11.2971 4.17744 11.2971 3.37795C11.2971 2.62023 11.0251 1.92665 10.5313 1.4249C10.0448 0.930607 9.37582 0.658423 8.6478 0.658423C8.11441 0.658423 7.62469 0.81724 7.19229 1.13042C6.80695 1.40963 6.53851 1.7626 6.38113 2.00957C6.3002 2.13657 6.15775 2.21238 6 2.21238C5.84225 2.21238 5.6998 2.13657 5.61887 2.00957C5.46158 1.7626 5.19315 1.40963 4.80771 1.13042C4.37531 0.81724 3.88559 0.658423 3.35229 0.658423Z" fill="white"/>
</svg>
