<svg width="6" height="9" viewBox="0 0 6 9" fill="none" xmlns="http://www.w3.org/2000/svg">
<path d="M2.79198 8.422C2.83835 8.49155 2.91642 8.53333 3 8.53333C3.08358 8.53333 3.16165 8.49157 3.20802 8.422C3.79967 7.53455 4.67112 6.43853 5.27838 5.32385C5.76395 4.43258 6 3.67243 6 3C6 1.3458 4.6542 0 3 0C1.3458 0 0 1.3458 0 3C0 3.67243 0.23605 4.43258 0.721617 5.32385C1.32843 6.43768 2.20155 7.53638 2.79198 8.422ZM3 0.5C4.3785 0.5 5.5 1.6215 5.5 3C5.5 3.58673 5.28388 4.26863 4.83932 5.08465C4.31587 6.04547 3.5689 7.02012 3 7.83948C2.43118 7.02023 1.68417 6.04552 1.16068 5.08465C0.716117 4.26863 0.5 3.58673 0.5 3C0.5 1.6215 1.6215 0.5 3 0.5Z" fill="white"/>
<path d="M2.99995 4.5C3.82705 4.5 4.49995 3.8271 4.49995 3C4.49995 2.1729 3.82705 1.5 2.99995 1.5C2.17285 1.5 1.49995 2.1729 1.49995 3C1.49995 3.8271 2.17285 4.5 2.99995 4.5ZM2.99995 2C3.55135 2 3.99995 2.4486 3.99995 3C3.99995 3.5514 3.55135 4 2.99995 4C2.44855 4 1.99995 3.5514 1.99995 3C1.99995 2.4486 2.44855 2 2.99995 2Z" fill="white"/>
</svg>
