<svg width="7" height="8" viewBox="0 0 7 8" fill="none" xmlns="http://www.w3.org/2000/svg">
<path d="M3.33119 0C2.18266 0 1.24574 0.940124 1.24574 2.08865C1.24574 2.79074 1.59706 3.41279 2.13171 3.79118C0.884662 4.29085 0 5.51015 0 6.93284C0.00190817 7.01882 0.0374026 7.10062 0.0988835 7.16075C0.160364 7.22088 0.242945 7.25458 0.328943 7.25458C0.414942 7.25458 0.497522 7.22088 0.559003 7.16075C0.620484 7.10062 0.655978 7.01882 0.657886 6.93284C0.657886 5.42297 1.87529 4.20621 3.38516 4.20621C3.91221 4.20621 4.40144 4.35647 4.81786 4.61419C4.85473 4.63709 4.89576 4.65247 4.93859 4.65949C4.98142 4.66651 5.02522 4.66502 5.06747 4.65509C5.10972 4.64516 5.1496 4.627 5.18483 4.60163C5.22005 4.57627 5.24992 4.54424 5.27274 4.50731C5.29555 4.47039 5.31086 4.42932 5.31778 4.38647C5.3247 4.34362 5.3231 4.29981 5.31307 4.25758C5.30305 4.21535 5.28479 4.17551 5.25935 4.14035C5.2339 4.10518 5.20177 4.07539 5.16479 4.05266C4.97715 3.93655 4.77346 3.84564 4.56344 3.76742C5.08084 3.3871 5.41985 2.77673 5.41985 2.08865C5.41985 0.940124 4.47972 0 3.33119 0ZM3.33119 0.658503C4.12417 0.658503 4.76197 1.29567 4.76197 2.08865C4.76197 2.88163 4.12417 3.51622 3.33119 3.51622C2.53821 3.51622 1.90363 2.88163 1.90363 2.08865C1.90363 1.29567 2.53821 0.658503 3.33119 0.658503ZM6.66046 4.60649C6.60699 4.60803 6.55471 4.62256 6.50813 4.64887C6.46156 4.67518 6.42211 4.71246 6.39319 4.75746L5.25924 6.45679L4.54802 5.98071C4.51196 5.95646 4.47147 5.93957 4.42886 5.93101C4.38626 5.92244 4.34238 5.92236 4.29975 5.93078C4.25711 5.9392 4.21656 5.95598 4.18041 5.9801C4.14427 6.00423 4.11324 6.03525 4.0891 6.07139C4.06497 6.10753 4.0482 6.14805 4.03977 6.19068C4.03133 6.23331 4.03139 6.27722 4.03994 6.31983C4.0485 6.36243 4.06538 6.40293 4.08961 6.439C4.11385 6.47507 4.14496 6.506 4.18118 6.53002L5.16993 7.18792C5.20595 7.21181 5.24633 7.22839 5.28875 7.23667C5.33117 7.24495 5.37481 7.24477 5.41718 7.23618C5.45954 7.22759 5.49979 7.21074 5.53564 7.18659C5.57149 7.16243 5.60222 7.13146 5.62608 7.09542L6.9425 5.12112C6.97683 5.07096 6.99659 5.01227 6.9996 4.95156C7.0026 4.89085 6.98873 4.83049 6.95951 4.77719C6.9303 4.72388 6.88689 4.67972 6.8341 4.64959C6.78131 4.61946 6.72121 4.60454 6.66046 4.60649Z" fill="white"/>
</svg>
