<svg width="66" height="65" viewBox="0 0 66 65" fill="none" xmlns="http://www.w3.org/2000/svg">
<path d="M47.667 47.6668H43.3337V43.3335H47.667V47.6668ZM34.667 47.6668H39.0003V43.3335H34.667V47.6668ZM56.3337 47.6668H52.0003V43.3335H56.3337V47.6668Z" fill="#464196"/>
<path fill-rule="evenodd" clip-rule="evenodd" d="M13 26V15.1667C13 13.175 13.3923 11.2027 14.1545 9.36264C14.9167 7.52253 16.0339 5.85057 17.4422 4.44221C18.8506 3.03386 20.5225 1.91669 22.3626 1.15449C24.2027 0.392297 26.175 0 28.1667 0C30.1584 0 32.1306 0.392297 33.9707 1.15449C35.8108 1.91669 37.4828 3.03386 38.8911 4.44221C40.2995 5.85057 41.4166 7.52253 42.1788 9.36264C42.941 11.2027 43.3333 13.175 43.3333 15.1667V26H49.8333C51.5572 26 53.2105 26.6848 54.4295 27.9038C55.6485 29.1228 56.3333 30.7761 56.3333 32.5V34.8833C58.7823 35.3806 60.984 36.7092 62.5655 38.6441C64.1469 40.579 65.0109 43.0011 65.0109 45.5C65.0109 47.9989 64.1469 50.421 62.5655 52.3559C60.984 54.2908 58.7823 55.6194 56.3333 56.1167V58.5C56.3333 60.2239 55.6485 61.8772 54.4295 63.0962C53.2105 64.3152 51.5572 65 49.8333 65H6.5C4.77609 65 3.12279 64.3152 1.90381 63.0962C0.684819 61.8772 0 60.2239 0 58.5L0 32.5C0 30.7761 0.684819 29.1228 1.90381 27.9038C3.12279 26.6848 4.77609 26 6.5 26H13ZM17.3333 15.1667C17.3333 12.2935 18.4747 9.53799 20.5063 7.50634C22.538 5.4747 25.2935 4.33333 28.1667 4.33333C31.0398 4.33333 33.7953 5.4747 35.827 7.50634C37.8586 9.53799 39 12.2935 39 15.1667V26H17.3333V15.1667ZM36.8333 39C35.1094 39 33.4561 39.6848 32.2371 40.9038C31.0182 42.1228 30.3333 43.7761 30.3333 45.5C30.3333 47.2239 31.0182 48.8772 32.2371 50.0962C33.4561 51.3152 35.1094 52 36.8333 52H54.1667C55.8906 52 57.5439 51.3152 58.7629 50.0962C59.9818 48.8772 60.6667 47.2239 60.6667 45.5C60.6667 43.7761 59.9818 42.1228 58.7629 40.9038C57.5439 39.6848 55.8906 39 54.1667 39H36.8333Z" fill="#464196"/>
</svg>