<svg width="11" height="12" viewBox="0 0 11 12" fill="none" xmlns="http://www.w3.org/2000/svg">
<path d="M1.51462 11.4231H9.48538C10.321 11.4231 11 10.744 11 9.90845V2.36076C11 1.52518 10.321 0.846138 9.48538 0.846138H8.88462V0.423069C8.88462 0.190374 8.69421 0 8.46152 0C8.22882 0 8.03845 0.190374 8.03845 0.423069V0.846138H2.96155V0.423069C2.96155 0.190374 2.77114 0 2.53845 0C2.30575 0 2.11538 0.190374 2.11538 0.423069V0.846138H1.51462C0.679044 0.846138 0 1.52518 0 2.36076V9.90845C0 10.744 0.679044 11.4231 1.51462 11.4231ZM0.846173 2.36076C0.846173 1.99269 1.14655 1.69231 1.51462 1.69231H2.11538V2.11538C2.11538 2.34807 2.30575 2.53845 2.53845 2.53845C2.77114 2.53845 2.96152 2.34807 2.96152 2.11538V1.69231H8.03845V2.11538C8.03845 2.34807 8.22882 2.53845 8.46152 2.53845C8.69421 2.53845 8.88459 2.34807 8.88459 2.11538V1.69231H9.48535C9.85341 1.69231 10.1538 1.99269 10.1538 2.36076V3.59616H0.846173V2.36076ZM0.846173 4.44229H10.1539V9.90845C10.1539 10.2765 9.85348 10.5769 9.48542 10.5769H1.51462C1.14655 10.5769 0.846173 10.2765 0.846173 9.90845V4.44229Z" fill="#495061"/>
</svg>
