<svg width="10" height="15" viewBox="0 0 10 15" fill="none" xmlns="http://www.w3.org/2000/svg">
<path d="M4.65331 14.0367C4.73058 14.1526 4.86069 14.2222 5 14.2222C5.13931 14.2222 5.26942 14.1526 5.34669 14.0367C6.33278 12.5576 7.78519 10.7309 8.79731 8.87308C9.60658 7.38764 10 6.12072 10 5C10 2.243 7.757 0 5 0C2.243 0 0 2.243 0 5C0 6.12072 0.393417 7.38764 1.20269 8.87308C2.21406 10.7295 3.66925 12.5606 4.65331 14.0367ZM5 0.833333C7.2975 0.833333 9.16667 2.7025 9.16667 5C9.16667 5.97789 8.80647 7.11439 8.06553 8.47442C7.19311 10.0758 5.94817 11.7002 5 13.0658C4.05197 11.7004 2.80694 10.0759 1.93447 8.47442C1.19353 7.11439 0.833333 5.97789 0.833333 5C0.833333 2.7025 2.7025 0.833333 5 0.833333Z" fill="#495061"/>
<path d="M5 7.5C6.3785 7.5 7.5 6.3785 7.5 5C7.5 3.6215 6.3785 2.5 5 2.5C3.6215 2.5 2.5 3.6215 2.5 5C2.5 6.3785 3.6215 7.5 5 7.5ZM5 3.33333C5.919 3.33333 6.66667 4.081 6.66667 5C6.66667 5.919 5.919 6.66667 5 6.66667C4.081 6.66667 3.33333 5.919 3.33333 5C3.33333 4.081 4.081 3.33333 5 3.33333Z" fill="#495061"/>
</svg>
