<svg width="30" height="30" viewBox="0 0 30 30" fill="none" xmlns="http://www.w3.org/2000/svg">
<g filter="url(#filter0_b_31_963)">
<rect width="30" height="30" rx="4" fill="#5C84E1"/>
<rect x="0.5" y="0.5" width="29" height="29" rx="3.5" stroke="#6B6B6B" stroke-opacity="0.1"/>
</g>
<path d="M12.2143 8.69909C12.2143 8.31298 11.8945 8 11.5 8H6.85714C5.27919 8 4 9.25196 4 10.7964V19.8845C4 21.4289 5.27919 22.6809 6.85714 22.6809H17.3629C17.6468 22.6809 17.9038 22.5163 18.0174 22.2616C18.1834 21.8898 18.5618 21.6322 19 21.6322C19.4383 21.6322 19.8166 21.8898 19.9826 22.2616C20.0963 22.5163 20.3532 22.6809 20.6371 22.6809H22.5714C24.1494 22.6809 25.4286 21.4289 25.4286 19.8845V10.7964C25.4286 9.25196 24.1494 8 22.5714 8H20.75C20.4103 8 20.1176 8.23416 20.05 8.56C19.9508 9.03836 19.5175 9.39818 19 9.39818C18.4825 9.39818 18.0492 9.03836 17.95 8.56C17.8824 8.23416 17.5897 8 17.25 8H15.0714C14.6769 8 14.3571 8.31298 14.3571 8.69909C14.3571 9.08519 14.6769 9.39818 15.0714 9.39818H16.7408C17.0422 10.0191 17.6026 10.4961 18.2857 10.6951V10.7964C18.2857 11.1825 18.6055 11.4954 19 11.4954C19.3945 11.4954 19.7143 11.1825 19.7143 10.7964V10.6951C20.3974 10.4961 20.9578 10.0191 21.2592 9.39818H22.5714C23.3604 9.39818 24 10.0242 24 10.7964V19.8845C24 20.6567 23.3604 21.2827 22.5714 21.2827H21.0517C20.7322 20.8344 20.2629 20.4952 19.7143 20.3354V19.8845C19.7143 19.4984 19.3945 19.1854 19 19.1854C18.6055 19.1854 18.2857 19.4984 18.2857 19.8845V20.3354C17.7371 20.4952 17.2678 20.8344 16.9483 21.2827H6.85714C6.06816 21.2827 5.42857 20.6567 5.42857 19.8845V10.7964C5.42857 10.0242 6.06816 9.39818 6.85714 9.39818H11.5C11.8945 9.39818 12.2143 9.08519 12.2143 8.69909Z" fill="white"/>
<path d="M19.7143 12.8936C19.7143 12.5075 19.3945 12.1945 19 12.1945C18.6055 12.1945 18.2857 12.5075 18.2857 12.8936V14.2918C18.2857 14.6779 18.6055 14.9909 19 14.9909C19.3945 14.9909 19.7143 14.6779 19.7143 14.2918V12.8936Z" fill="white"/>
<path d="M19.7143 16.3891C19.7143 16.003 19.3945 15.69 19 15.69C18.6055 15.69 18.2857 16.003 18.2857 16.3891V17.7872C18.2857 18.1733 18.6055 18.4863 19 18.4863C19.3945 18.4863 19.7143 18.1733 19.7143 17.7872V16.3891Z" fill="white"/>
<defs>
<filter id="filter0_b_31_963" x="-9.6" y="-9.6" width="49.2" height="49.2" filterUnits="userSpaceOnUse" color-interpolation-filters="sRGB">
<feFlood flood-opacity="0" result="BackgroundImageFix"/>
<feGaussianBlur in="BackgroundImageFix" stdDeviation="4.8"/>
<feComposite in2="SourceAlpha" operator="in" result="effect1_backgroundBlur_31_963"/>
<feBlend mode="normal" in="SourceGraphic" in2="effect1_backgroundBlur_31_963" result="shape"/>
</filter>
</defs>
</svg>
