<svg width="70" height="70" viewBox="0 0 70 70" fill="none" xmlns="http://www.w3.org/2000/svg">
<path d="M35.0001 9.15527e-05C15.6708 9.15527e-05 0.00012207 15.6653 0.00012207 35.0001C0.00012207 54.3348 15.6708 70.0001 35.0001 70.0001C54.3294 70.0001 70.0001 54.3253 70.0001 35.0001C70.0001 15.6749 54.3294 9.15527e-05 35.0001 9.15527e-05Z" fill="#2AD352"/>
<path d="M3.25036e-05 35C-0.00786836 40.7852 1.42474 46.4813 4.16859 51.5744C7.66432 52.6008 11.2892 53.1206 14.9324 53.118C35.9735 53.118 53.0305 36.061 53.0305 15.02C53.0336 11.3189 52.4975 7.63715 51.4391 4.09067C46.3793 1.39557 40.7328 -0.00949832 35 4.83247e-05C15.6707 4.83247e-05 3.25036e-05 15.6653 3.25036e-05 35Z" fill="#74DA7F"/>
<path d="M54.961 29.2004L33.9241 51.2928C33.3507 51.8942 32.6619 52.3737 31.8989 52.7026C31.1359 53.0315 30.3143 53.203 29.4834 53.2068H29.4561C28.6298 53.2071 27.8119 53.0412 27.051 52.7193C26.29 52.3973 25.6015 51.9256 25.0264 51.3324L13.8633 39.8344C13.2865 39.2554 12.8305 38.5676 12.5216 37.811C12.2128 37.0544 12.0573 36.2439 12.0642 35.4267C12.0711 34.6095 12.2402 33.8018 12.5617 33.0505C12.8833 32.2992 13.3509 31.6192 13.9373 31.05C14.5238 30.4809 15.2174 30.0338 15.9781 29.7349C16.7387 29.436 17.5511 29.2911 18.3681 29.3087C19.1852 29.3262 19.9906 29.5059 20.7376 29.8373C21.4847 30.1686 22.1585 30.645 22.72 31.2389L29.4123 38.1322L46.0223 20.6897C46.5787 20.093 47.2479 19.6126 47.9911 19.2763C48.7344 18.9399 49.537 18.7543 50.3524 18.73C51.1679 18.7058 51.9801 18.8435 52.742 19.1352C53.5039 19.4269 54.2004 19.8667 54.7912 20.4292C55.3821 20.9918 55.8555 21.6659 56.1842 22.4126C56.5128 23.1593 56.6902 23.9637 56.706 24.7794C56.7217 25.5951 56.5756 26.4058 56.2761 27.1646C55.9766 27.9235 55.5296 28.6154 54.961 29.2004Z" fill="white"/>
</svg>
