<svg width="16" height="14" viewBox="0 0 16 14" fill="none" xmlns="http://www.w3.org/2000/svg">
<path d="M8 14C7.77222 14 7.55261 13.9188 7.38147 13.7714C6.73511 13.2156 6.11194 12.6932 5.56213 12.2324L5.55933 12.23C3.94739 10.879 2.55542 9.71231 1.58691 8.56301C0.504272 7.27817 0 6.05996 0 4.72914C0 3.43613 0.450806 2.24325 1.26929 1.37008C2.09753 0.486588 3.23401 0 4.46973 0C5.39331 0 6.23914 0.287175 6.98364 0.85348C7.35938 1.13933 7.69995 1.48918 8 1.89725C8.30017 1.48918 8.64062 1.13933 9.01648 0.85348C9.76099 0.287175 10.6068 0 11.5304 0C12.766 0 13.9026 0.486588 14.7308 1.37008C15.5493 2.24325 16 3.43613 16 4.72914C16 6.05996 15.4958 7.27817 14.4132 8.56289C13.4447 9.71231 12.0529 10.8789 10.4412 12.2298C9.89038 12.6913 9.26624 13.2145 8.61841 13.7717C8.44739 13.9188 8.22766 14 8 14ZM4.46973 0.921792C3.4989 0.921792 2.60706 1.30285 1.95825 1.99485C1.2998 2.6973 0.937134 3.66832 0.937134 4.72914C0.937134 5.84842 1.36011 6.84945 2.30847 7.97486C3.2251 9.06269 4.5885 10.2054 6.16711 11.5285L6.17004 11.5309C6.72192 11.9935 7.34753 12.5179 7.99866 13.0778C8.65369 12.5168 9.28027 11.9916 9.83325 11.5283C11.4117 10.2051 12.775 9.06269 13.6917 7.97486C14.6399 6.84945 15.0629 5.84842 15.0629 4.72914C15.0629 3.66832 14.7002 2.6973 14.0417 1.99485C13.3931 1.30285 12.5011 0.921792 11.5304 0.921792C10.8192 0.921792 10.1663 1.14414 9.58972 1.58258C9.07593 1.97348 8.71802 2.46764 8.50818 2.8134C8.40027 2.9912 8.21033 3.09733 8 3.09733C7.78967 3.09733 7.59973 2.9912 7.49182 2.8134C7.2821 2.46764 6.92419 1.97348 6.41028 1.58258C5.83374 1.14414 5.18079 0.921792 4.46973 0.921792Z" fill="white"/>
</svg>
