<svg width="9" height="10" viewBox="0 0 9 10" fill="none" xmlns="http://www.w3.org/2000/svg">
<path d="M5.52977 1.20638L5.89814 0.831915C6.33349 0.389362 7.09116 0.389362 7.52651 0.831915L7.82372 1.13404C8.0414 1.35532 8.16279 1.64894 8.16279 1.95957C8.16279 2.27021 8.0414 2.56809 7.82372 2.78511L7.45535 3.15957L5.52977 1.20213V1.20638ZM5.08605 1.65745L1.27256 5.53404C1.15116 5.65745 1.07581 5.81915 1.06326 5.99362L0.950233 7.24043C0.937674 7.39787 0.992093 7.55106 1.10093 7.66596C1.2014 7.76809 1.33116 7.8234 1.4693 7.8234H1.51535L2.74186 7.70851C2.91349 7.69149 3.07256 7.61489 3.19395 7.49149L7.00744 3.61489L5.08186 1.65745H5.08605ZM9 9.18085C9 9.00638 8.85767 8.8617 8.68605 8.8617H0.313953C0.142326 8.8617 0 9.00638 0 9.18085C0 9.35532 0.142326 9.5 0.313953 9.5H8.68605C8.85767 9.5 9 9.35532 9 9.18085Z" fill="#6B7280"/>
</svg>
