<svg width="26" height="26" viewBox="0 0 26 26" fill="none" xmlns="http://www.w3.org/2000/svg">
<path d="M10.7146 7.87061C4.83453 7.87061 5.34775e-05 11.9142 5.34775e-05 16.8846C5.34775e-05 18.8714 0.77071 20.8906 2.184 22.4556L0.188249 24.7363C-0.0081223 24.9609 -0.0557551 25.28 0.0685066 25.5523C0.192007 25.8245 0.462772 25.9994 0.761772 25.9994H11.4764C15.8179 25.9994 21.4292 22.2608 21.4292 16.8846C21.4292 11.9142 16.5948 7.87061 10.7146 7.87061ZM6.09365 18.2808C5.25383 18.2808 4.57026 17.5971 4.57026 16.7574C4.57026 15.9176 5.25388 15.234 6.09365 15.234C6.93342 15.234 7.61704 15.9176 7.61704 16.7574C7.61709 17.5971 6.93347 18.2808 6.09365 18.2808ZM10.7146 18.2808C9.87482 18.2808 9.19126 17.5971 9.19126 16.7574C9.19126 15.9176 9.87487 15.234 10.7146 15.234C11.5544 15.234 12.238 15.9176 12.238 16.7574C12.238 17.5971 11.5545 18.2808 10.7146 18.2808ZM15.3356 18.2808C14.4958 18.2808 13.8122 17.5971 13.8122 16.7574C13.8122 15.9176 14.4959 15.234 15.3356 15.234C16.1754 15.234 16.859 15.9176 16.859 16.7574C16.859 17.5971 16.1755 18.2808 15.3356 18.2808Z" fill="#2C64E3"/>
<path d="M25.8157 15.4996L24.0223 13.4071C25.3025 11.9626 25.9995 10.2011 25.9995 8.3787C25.9994 3.75868 21.5572 0 16.0973 0C11.1601 0 6.96556 3.07679 6.22491 7.08145C7.60251 6.61334 9.14743 6.34725 10.7147 6.34725C17.385 6.34725 22.8652 11.0062 22.9452 16.7574H25.2378C25.8884 16.7575 26.2379 15.9913 25.8157 15.4996Z" fill="#2C64E3"/>
</svg>
