<svg width="30" height="23" viewBox="0 0 30 23" fill="none" xmlns="http://www.w3.org/2000/svg">
<path fill-rule="evenodd" clip-rule="evenodd" d="M0 1.64286C0 0.73554 0.7462 0 1.66667 0H28.3333C29.2538 0 30 0.73554 30 1.64286C30 2.55017 29.2538 3.28571 28.3333 3.28571H1.66667C0.7462 3.28571 0 2.55017 0 1.64286ZM0 11.5C0 10.5927 0.7462 9.85714 1.66667 9.85714H18.3333C19.2538 9.85714 20 10.5927 20 11.5C20 12.4074 19.2538 13.1429 18.3333 13.1429H1.66667C0.7462 13.1429 0 12.4074 0 11.5ZM0 21.3571C0 20.4498 0.7462 19.7143 1.66667 19.7143H10C10.9205 19.7143 11.6667 20.4498 11.6667 21.3571C11.6667 22.2645 10.9205 23 10 23H1.66667C0.7462 23 0 22.2645 0 21.3571Z" fill="#2C64E3"/>
</svg>
