<svg width="19" height="19" viewBox="0 0 19 19" fill="none" xmlns="http://www.w3.org/2000/svg">
<path d="M0.730769 1.94872C0.32718 1.94872 0 2.2759 0 2.67949C0 3.08308 0.32718 3.41026 0.730769 3.41026V1.94872ZM0.730769 8.76923C0.32718 8.76923 0 9.09642 0 9.5C0 9.90358 0.32718 10.2308 0.730769 10.2308V8.76923ZM9.5 10.2308C9.90358 10.2308 10.2308 9.90358 10.2308 9.5C10.2308 9.09642 9.90358 8.76923 9.5 8.76923V10.2308ZM18.2692 10.2308C18.6728 10.2308 19 9.90358 19 9.5C19 9.09642 18.6728 8.76923 18.2692 8.76923V10.2308ZM18.2692 3.41026C18.6728 3.41026 19 3.08308 19 2.67949C19 2.2759 18.6728 1.94872 18.2692 1.94872V3.41026ZM9.5 15.5897C9.09642 15.5897 8.76923 15.9169 8.76923 16.3205C8.76923 16.7241 9.09642 17.0513 9.5 17.0513V15.5897ZM18.2692 17.0513C18.6728 17.0513 19 16.7241 19 16.3205C19 15.9169 18.6728 15.5897 18.2692 15.5897V17.0513ZM0.730769 15.5897C0.32718 15.5897 0 15.9169 0 16.3205C0 16.7241 0.32718 17.0513 0.730769 17.0513V15.5897ZM0.730769 3.41026H7.55128V1.94872H0.730769V3.41026ZM0.730769 10.2308H9.5V8.76923H0.730769V10.2308ZM16.3205 10.2308H18.2692V8.76923H16.3205V10.2308ZM11.4487 3.41026H18.2692V1.94872H11.4487V3.41026ZM9.5 17.0513H18.2692V15.5897H9.5V17.0513ZM0.730769 17.0513H2.67949V15.5897H0.730769V17.0513ZM5.84615 16.3205C5.84615 16.9932 5.30086 17.5385 4.62821 17.5385V19C6.10804 19 7.30769 17.8004 7.30769 16.3205H5.84615ZM4.62821 17.5385C3.95555 17.5385 3.41026 16.9932 3.41026 16.3205H1.94872C1.94872 17.8004 3.14837 19 4.62821 19V17.5385ZM3.41026 16.3205C3.41026 15.6478 3.95555 15.1026 4.62821 15.1026V13.641C3.14837 13.641 1.94872 14.8407 1.94872 16.3205H3.41026ZM4.62821 15.1026C5.30086 15.1026 5.84615 15.6478 5.84615 16.3205H7.30769C7.30769 14.8407 6.10804 13.641 4.62821 13.641V15.1026ZM15.5897 9.5C15.5897 10.1727 15.0445 10.7179 14.3718 10.7179V12.1795C15.8517 12.1795 17.0513 10.9799 17.0513 9.5H15.5897ZM14.3718 10.7179C13.6991 10.7179 13.1538 10.1727 13.1538 9.5H11.6923C11.6923 10.9799 12.8919 12.1795 14.3718 12.1795V10.7179ZM13.1538 9.5C13.1538 8.8273 13.6991 8.28205 14.3718 8.28205V6.82051C12.8919 6.82051 11.6923 8.02014 11.6923 9.5H13.1538ZM14.3718 8.28205C15.0445 8.28205 15.5897 8.8273 15.5897 9.5H17.0513C17.0513 8.02014 15.8517 6.82051 14.3718 6.82051V8.28205ZM10.7179 2.67949C10.7179 3.35215 10.1727 3.89744 9.5 3.89744V5.35897C10.9799 5.35897 12.1795 4.15932 12.1795 2.67949H10.7179ZM9.5 3.89744C8.8273 3.89744 8.28205 3.35215 8.28205 2.67949H6.82051C6.82051 4.15932 8.02014 5.35897 9.5 5.35897V3.89744ZM8.28205 2.67949C8.28205 2.00683 8.8273 1.46154 9.5 1.46154V0C8.02014 0 6.82051 1.19965 6.82051 2.67949H8.28205ZM9.5 1.46154C10.1727 1.46154 10.7179 2.00683 10.7179 2.67949H12.1795C12.1795 1.19965 10.9799 0 9.5 0V1.46154Z" fill="#495061"/>
</svg>
