<svg width="22" height="22" viewBox="0 0 22 22" fill="none" xmlns="http://www.w3.org/2000/svg">
<path d="M21.7917 20.8035L16.1115 15.2141C17.599 13.5981 18.5129 11.4608 18.5129 9.10894C18.5122 4.07789 14.3683 0 9.25611 0C4.14393 0 0 4.07789 0 9.10894C0 14.14 4.14393 18.2179 9.25611 18.2179C11.4649 18.2179 13.4908 17.4539 15.0821 16.1837L20.7843 21.7952C21.0621 22.0689 21.5132 22.0689 21.7911 21.7952C22.0695 21.5215 22.0695 21.0772 21.7917 20.8035ZM9.25611 16.8164C4.93064 16.8164 1.42418 13.3657 1.42418 9.10894C1.42418 4.85221 4.93064 1.40146 9.25611 1.40146C13.5816 1.40146 17.088 4.85221 17.088 9.10894C17.088 13.3657 13.5816 16.8164 9.25611 16.8164Z" fill="#495061"/>
</svg>
