<svg width="30" height="38" viewBox="0 0 30 38" fill="none" xmlns="http://www.w3.org/2000/svg">
<path d="M13.9427 11.3138C17.0553 11.3138 19.5996 8.76946 19.5996 5.65691C19.5996 2.54436 17.0553 0 13.9427 0C10.8302 0 8.28587 2.54436 8.28587 5.65691C8.28587 8.76946 10.8302 11.3138 13.9427 11.3138Z" fill="#2C64E3"/>
<path d="M23.6509 15.8344C23.5027 15.4639 23.3051 15.118 23.0828 14.7969C21.9464 13.1171 20.1926 12.0055 18.2164 11.7338C17.9694 11.7091 17.6976 11.7584 17.5 11.9067C16.4625 12.6724 15.2274 13.0677 13.9428 13.0677C12.6582 13.0677 11.4231 12.6724 10.3856 11.9067C10.188 11.7584 9.91623 11.6843 9.66922 11.7338C7.69301 12.0055 5.91444 13.1171 4.80283 14.7969C4.58051 15.118 4.38287 15.4886 4.23468 15.8344C4.16059 15.9826 4.18527 16.1556 4.25936 16.3038C4.45701 16.6496 4.70401 16.9955 4.92633 17.2919C5.27215 17.7613 5.6427 18.1812 6.06267 18.5764C6.40849 18.9222 6.80372 19.2434 7.199 19.5645C9.15049 21.022 11.4973 21.7877 13.9181 21.7877C16.339 21.7877 18.6857 21.0219 20.6372 19.5645C21.0324 19.2681 21.4277 18.9222 21.7736 18.5764C22.1688 18.1812 22.564 17.7612 22.9099 17.2919C23.1569 16.9707 23.3793 16.6496 23.5769 16.3038C23.7003 16.1556 23.725 15.9826 23.6509 15.8344Z" fill="#2C64E3"/>
<path d="M1.50279 32.4246V31.6H3.40335C3.66481 31.6 3.89609 31.5464 4.09721 31.4391C4.30503 31.3318 4.46592 31.181 4.57989 30.9866C4.70056 30.7922 4.76089 30.5609 4.76089 30.2927C4.76089 30.0246 4.70056 29.7933 4.57989 29.5989C4.46592 29.4045 4.30503 29.2536 4.09721 29.1464C3.89609 29.0391 3.66481 28.9855 3.40335 28.9855H1.50279V28.1609H3.46369C3.89274 28.1609 4.27486 28.248 4.61006 28.4223C4.95196 28.5966 5.22011 28.8447 5.41453 29.1665C5.61564 29.4815 5.7162 29.857 5.7162 30.2927C5.7162 30.7218 5.61564 31.0972 5.41453 31.419C5.22011 31.7341 4.95196 31.9821 4.61006 32.1631C4.27486 32.3374 3.89274 32.4246 3.46369 32.4246H1.50279ZM0.869275 35.1396V28.1609H1.81453V35.1396H0.869275ZM6.80671 35.1396V30.3631H7.71174V35.1396H6.80671ZM7.71174 32.4145L7.36984 32.2637C7.36984 31.6536 7.51062 31.1676 7.79219 30.8056C8.07375 30.4436 8.47934 30.2626 9.00895 30.2626C9.25029 30.2626 9.46817 30.3061 9.66258 30.3933C9.85699 30.4737 10.038 30.6112 10.2056 30.8056L9.6123 31.419C9.51174 31.3117 9.40113 31.2346 9.28046 31.1877C9.15979 31.1408 9.019 31.1173 8.85811 31.1173C8.52291 31.1173 8.24805 31.2246 8.03353 31.4391C7.819 31.6536 7.71174 31.9788 7.71174 32.4145ZM12.8678 35.2402C12.3985 35.2402 11.9762 35.1296 11.6008 34.9084C11.2254 34.6871 10.927 34.3888 10.7058 34.0134C10.4846 33.6313 10.374 33.2056 10.374 32.7363C10.374 32.2737 10.4846 31.8581 10.7058 31.4894C10.927 31.114 11.2254 30.8156 11.6008 30.5944C11.9762 30.3732 12.3985 30.2626 12.8678 30.2626C13.3304 30.2626 13.7494 30.3732 14.1248 30.5944C14.5069 30.8089 14.8086 31.1039 15.0298 31.4793C15.251 31.8547 15.3617 32.2737 15.3617 32.7363C15.3617 33.2056 15.251 33.6313 15.0298 34.0134C14.8086 34.3888 14.5069 34.6871 14.1248 34.9084C13.7494 35.1296 13.3304 35.2402 12.8678 35.2402ZM12.8678 34.3653C13.1695 34.3653 13.4376 34.295 13.6723 34.1542C13.9069 34.0134 14.0913 33.8223 14.2254 33.581C14.3594 33.3329 14.4265 33.0514 14.4265 32.7363C14.4265 32.4279 14.3561 32.1531 14.2153 31.9117C14.0812 31.6704 13.8969 31.4827 13.6622 31.3486C13.4343 31.2078 13.1695 31.1374 12.8678 31.1374C12.5661 31.1374 12.298 31.2078 12.0633 31.3486C11.8287 31.4827 11.6443 31.6704 11.5103 31.9117C11.3762 32.1531 11.3091 32.4279 11.3091 32.7363C11.3091 33.0514 11.3762 33.3329 11.5103 33.581C11.6443 33.8223 11.8287 34.0134 12.0633 34.1542C12.298 34.295 12.5661 34.3653 12.8678 34.3653ZM16.9179 35.1396V29.4983C16.9179 29.1832 16.9849 28.905 17.119 28.6637C17.2598 28.4156 17.4542 28.2212 17.7022 28.0804C17.9503 27.9329 18.2352 27.8592 18.557 27.8592C18.805 27.8592 19.0229 27.9028 19.2106 27.9899C19.3983 28.0704 19.5726 28.1843 19.7335 28.3318L19.1402 28.9251C19.0531 28.8514 18.9626 28.7977 18.8687 28.7642C18.7749 28.724 18.671 28.7039 18.557 28.7039C18.3224 28.7039 18.1414 28.7776 18.014 28.9251C17.8866 29.0659 17.8229 29.257 17.8229 29.4983V35.1396H16.9179ZM15.7413 31.1877V30.3631H20.2765V31.1877H15.7413ZM19.7536 35.1396V30.3631H20.6687V35.1396H19.7536ZM20.2062 29.8603C20.0453 29.8603 19.9112 29.8067 19.8039 29.6994C19.6967 29.5855 19.643 29.4447 19.643 29.2771C19.643 29.1162 19.6967 28.9821 19.8039 28.8748C19.9112 28.7609 20.0453 28.7039 20.2062 28.7039C20.3805 28.7039 20.5179 28.7609 20.6184 28.8748C20.7257 28.9821 20.7793 29.1162 20.7793 29.2771C20.7793 29.4447 20.7257 29.5855 20.6184 29.6994C20.5179 29.8067 20.3805 29.8603 20.2062 29.8603ZM21.9985 35.1396V27.9598H22.9036V35.1396H21.9985ZM26.44 35.2402C25.964 35.2402 25.535 35.1329 25.1529 34.9184C24.7707 34.6972 24.4691 34.3989 24.2478 34.0234C24.0266 33.648 23.916 33.2223 23.916 32.7464C23.916 32.2771 24.0232 31.8547 24.2378 31.4793C24.459 31.1039 24.754 30.8089 25.1227 30.5944C25.4981 30.3732 25.9171 30.2626 26.3797 30.2626C26.8221 30.2626 27.211 30.3631 27.5461 30.5642C27.888 30.7653 28.1529 31.0436 28.3406 31.3989C28.535 31.7542 28.6322 32.1564 28.6322 32.6056C28.6322 32.6726 28.6288 32.7464 28.6221 32.8268C28.6154 32.9005 28.602 32.9877 28.5819 33.0883H24.5495V32.3341H28.0992L27.7674 32.6257C27.7674 32.3039 27.7104 32.0324 27.5964 31.8112C27.4825 31.5832 27.3216 31.4089 27.1137 31.2883C26.9059 31.1609 26.6545 31.0972 26.3596 31.0972C26.0512 31.0972 25.7797 31.1642 25.545 31.2983C25.3104 31.4324 25.1294 31.6201 25.002 31.8614C24.8746 32.1028 24.811 32.3877 24.811 32.7162C24.811 33.0514 24.878 33.3464 25.0121 33.6011C25.1461 33.8491 25.3372 34.0436 25.5853 34.1843C25.8333 34.3184 26.1182 34.3855 26.44 34.3855C26.7082 34.3855 26.9529 34.3385 27.1741 34.2447C27.402 34.1508 27.5964 34.01 27.7573 33.8223L28.3406 34.4156C28.1126 34.6838 27.8311 34.8883 27.4959 35.029C27.1674 35.1698 26.8154 35.2402 26.44 35.2402Z" fill="#2C64E3"/>
</svg>
