<svg width="35" height="38" viewBox="0 0 35 38" fill="none" xmlns="http://www.w3.org/2000/svg">
<path d="M1.30131 35.1396V28.1609H2.24656V35.1396H1.30131ZM1.94488 35.1396V34.2748H5.94712V35.1396H1.94488ZM1.94488 31.9821V31.1575H5.61527V31.9821H1.94488ZM1.94488 29.0257V28.1609H5.89684V29.0257H1.94488ZM10.2092 35.1396L8.72096 33.048L8.55001 32.8871L6.66957 30.3631H7.76566L9.1232 32.2234L9.29415 32.3642L11.3053 35.1396H10.2092ZM6.57906 35.1396L8.55001 32.4849L9.06286 33.1486L7.64499 35.1396H6.57906ZM9.36454 32.8771L8.84163 32.2335L10.159 30.3631H11.2148L9.36454 32.8771ZM14.653 35.2402C14.291 35.2402 13.9625 35.1665 13.6675 35.019C13.3792 34.8648 13.148 34.6536 12.9737 34.3855C12.7993 34.1173 12.7021 33.8123 12.682 33.4704V32.0324C12.7021 31.6838 12.7993 31.3788 12.9737 31.1173C13.1547 30.8491 13.3893 30.6413 13.6776 30.4938C13.9725 30.3396 14.2977 30.2626 14.653 30.2626C15.0887 30.2626 15.4809 30.3732 15.8295 30.5944C16.1848 30.8156 16.463 31.114 16.6642 31.4894C16.8653 31.8648 16.9658 32.2871 16.9658 32.7564C16.9658 33.2257 16.8653 33.648 16.6642 34.0234C16.463 34.3989 16.1848 34.6972 15.8295 34.9184C15.4809 35.1329 15.0887 35.2402 14.653 35.2402ZM12.139 37.1408V30.3631H13.044V31.6201L12.8731 32.7765L13.044 33.943V37.1408H12.139ZM14.5021 34.3855C14.8038 34.3855 15.0686 34.3151 15.2966 34.1743C15.5245 34.0335 15.7055 33.8424 15.8396 33.6011C15.9737 33.3531 16.0407 33.0681 16.0407 32.7464C16.0407 32.4313 15.9737 32.1497 15.8396 31.9017C15.7055 31.6536 15.5245 31.4626 15.2966 31.3285C15.0686 31.1877 14.8072 31.1173 14.5122 31.1173C14.2105 31.1173 13.9457 31.1877 13.7178 31.3285C13.4899 31.4626 13.3122 31.6536 13.1848 31.9017C13.0575 32.1497 12.9938 32.4346 12.9938 32.7564C12.9938 33.0715 13.0541 33.3531 13.1748 33.6011C13.3021 33.8424 13.4798 34.0335 13.7077 34.1743C13.9424 34.3151 14.2072 34.3855 14.5021 34.3855ZM17.9918 35.1396V27.9598H18.8969V35.1396H17.9918ZM22.4031 35.2402C21.9339 35.2402 21.5115 35.1296 21.1361 34.9084C20.7607 34.6871 20.4624 34.3888 20.2411 34.0134C20.0199 33.6313 19.9093 33.2056 19.9093 32.7363C19.9093 32.2737 20.0199 31.8581 20.2411 31.4894C20.4624 31.114 20.7607 30.8156 21.1361 30.5944C21.5115 30.3732 21.9339 30.2626 22.4031 30.2626C22.8657 30.2626 23.2847 30.3732 23.6601 30.5944C24.0423 30.8089 24.3439 31.1039 24.5652 31.4793C24.7864 31.8547 24.897 32.2737 24.897 32.7363C24.897 33.2056 24.7864 33.6313 24.5652 34.0134C24.3439 34.3888 24.0423 34.6871 23.6601 34.9084C23.2847 35.1296 22.8657 35.2402 22.4031 35.2402ZM22.4031 34.3653C22.7048 34.3653 22.973 34.295 23.2076 34.1542C23.4423 34.0134 23.6266 33.8223 23.7607 33.581C23.8948 33.3329 23.9618 33.0514 23.9618 32.7363C23.9618 32.4279 23.8914 32.1531 23.7506 31.9117C23.6166 31.6704 23.4322 31.4827 23.1976 31.3486C22.9696 31.2078 22.7048 31.1374 22.4031 31.1374C22.1015 31.1374 21.8333 31.2078 21.5987 31.3486C21.364 31.4827 21.1797 31.6704 21.0456 31.9117C20.9115 32.1531 20.8445 32.4279 20.8445 32.7363C20.8445 33.0514 20.9115 33.3329 21.0456 33.581C21.1797 33.8223 21.364 34.0134 21.5987 34.1542C21.8333 34.295 22.1015 34.3653 22.4031 34.3653ZM25.9167 35.1396V30.3631H26.8218V35.1396H25.9167ZM26.8218 32.4145L26.4799 32.2637C26.4799 31.6536 26.6206 31.1676 26.9022 30.8056C27.1838 30.4436 27.5894 30.2626 28.119 30.2626C28.3603 30.2626 28.5782 30.3061 28.7726 30.3933C28.967 30.4737 29.148 30.6112 29.3156 30.8056L28.7223 31.419C28.6218 31.3117 28.5111 31.2346 28.3905 31.1877C28.2698 31.1408 28.129 31.1173 27.9681 31.1173C27.6329 31.1173 27.3581 31.2246 27.1435 31.4391C26.929 31.6536 26.8218 31.9788 26.8218 32.4145ZM32.008 35.2402C31.532 35.2402 31.103 35.1329 30.7208 34.9184C30.3387 34.6972 30.037 34.3989 29.8158 34.0234C29.5946 33.648 29.484 33.2223 29.484 32.7464C29.484 32.2771 29.5912 31.8547 29.8058 31.4793C30.027 31.1039 30.322 30.8089 30.6907 30.5944C31.0661 30.3732 31.4851 30.2626 31.9477 30.2626C32.3901 30.2626 32.7789 30.3631 33.1141 30.5642C33.456 30.7653 33.7208 31.0436 33.9085 31.3989C34.103 31.7542 34.2002 32.1564 34.2002 32.6056C34.2002 32.6726 34.1968 32.7464 34.1901 32.8268C34.1834 32.9005 34.17 32.9877 34.1499 33.0883H30.1175V32.3341H33.6672L33.3354 32.6257C33.3354 32.3039 33.2784 32.0324 33.1644 31.8112C33.0504 31.5832 32.8896 31.4089 32.6817 31.2883C32.4739 31.1609 32.2225 31.0972 31.9275 31.0972C31.6192 31.0972 31.3477 31.1642 31.113 31.2983C30.8784 31.4324 30.6974 31.6201 30.57 31.8614C30.4426 32.1028 30.3789 32.3877 30.3789 32.7162C30.3789 33.0514 30.446 33.3464 30.5801 33.6011C30.7141 33.8491 30.9052 34.0436 31.1532 34.1843C31.4013 34.3184 31.6862 34.3855 32.008 34.3855C32.2761 34.3855 32.5208 34.3385 32.7421 34.2447C32.97 34.1508 33.1644 34.01 33.3253 33.8223L33.9085 34.4156C33.6806 34.6838 33.3991 34.8883 33.0639 35.029C32.7354 35.1698 32.3834 35.2402 32.008 35.2402Z" fill="#2C64E3"/>
<path d="M16.7601 0C10.7531 0 5.86593 4.88697 5.86593 10.8939C5.86593 16.9007 10.7531 21.7877 16.7601 21.7877C22.7669 21.7877 27.6536 16.9007 27.6536 10.8939C27.6536 4.88697 22.7669 0 16.7601 0ZM22.1449 6.20578L18.6947 12.6166C18.6474 12.7045 18.5754 12.7768 18.4872 12.8243L12.0765 16.2738C12.0002 16.3148 11.9173 16.3346 11.8347 16.3346C11.7024 16.3346 11.5717 16.2835 11.4735 16.1851C11.3139 16.0257 11.2779 15.7805 11.3847 15.5819L14.8342 9.17163C14.8816 9.0836 14.9539 9.01121 15.0419 8.96395L21.4533 5.51422C21.6518 5.40722 21.8968 5.44341 22.0565 5.60277C22.2157 5.76231 22.252 6.00724 22.1449 6.20578Z" fill="#2C64E3"/>
<path d="M16.7703 9.70679C16.1132 9.70679 15.5806 10.2388 15.5806 10.8959C15.5806 11.5529 16.1134 12.0858 16.7703 12.0858C17.4268 12.0858 17.9595 11.5529 17.9595 10.8959C17.9595 10.2388 17.4268 9.70679 16.7703 9.70679Z" fill="#2C64E3"/>
</svg>
