<svg width="23" height="22" viewBox="0 0 23 22" fill="none" xmlns="http://www.w3.org/2000/svg">
<path d="M21.7164 9.4766C21.7159 9.4761 21.7154 9.47561 21.7149 9.47511L12.8263 0.587779C12.4475 0.208781 11.9437 0 11.4079 0C10.8721 0 10.3684 0.208615 9.98938 0.587613L1.10547 9.47045C1.10248 9.47344 1.09949 9.4766 1.0965 9.47959C0.318474 10.262 0.319804 11.5315 1.10032 12.3119C1.45691 12.6687 1.92788 12.8753 2.43143 12.8969C2.45188 12.8989 2.4725 12.8999 2.49328 12.8999H2.84754V19.4404C2.84754 20.7347 3.9007 21.7877 5.19541 21.7877H8.6729C9.02534 21.7877 9.31127 21.502 9.31127 21.1494V16.0216C9.31127 15.431 9.79172 14.9506 10.3824 14.9506H12.4335C13.0242 14.9506 13.5046 15.431 13.5046 16.0216V21.1494C13.5046 21.502 13.7904 21.7877 14.143 21.7877H17.6205C18.9152 21.7877 19.9683 20.7347 19.9683 19.4404V12.8999H20.2968C20.8325 12.8999 21.3362 12.6913 21.7154 12.3123C22.4967 11.5305 22.4971 10.2589 21.7164 9.4766Z" fill="#3E63F4"/>
</svg>
