<svg width="23" height="22" viewBox="0 0 23 22" fill="none" xmlns="http://www.w3.org/2000/svg">
<path d="M11.7601 0C5.75305 0 0.865929 4.88697 0.865929 10.8939C0.865929 16.9007 5.75305 21.7877 11.7601 21.7877C17.7669 21.7877 22.6536 16.9007 22.6536 10.8939C22.6536 4.88697 17.7669 0 11.7601 0ZM17.1449 6.20578L13.6947 12.6166C13.6474 12.7045 13.5754 12.7768 13.4872 12.8243L7.07648 16.2738C7.00022 16.3148 6.91729 16.3346 6.83471 16.3346C6.7024 16.3346 6.57167 16.2835 6.47345 16.1851C6.31391 16.0257 6.27789 15.7805 6.38472 15.5819L9.83421 9.17163C9.88165 9.0836 9.95386 9.01121 10.0419 8.96395L16.4533 5.51422C16.6518 5.40722 16.8968 5.44341 17.0565 5.60277C17.2157 5.76231 17.252 6.00724 17.1449 6.20578Z" fill="#495061"/>
<path d="M11.7703 9.70679C11.1132 9.70679 10.5806 10.2388 10.5806 10.8959C10.5806 11.5529 11.1134 12.0858 11.7703 12.0858C12.4268 12.0858 12.9595 11.5529 12.9595 10.8959C12.9595 10.2388 12.4268 9.70679 11.7703 9.70679Z" fill="#495061"/>
</svg>
