<svg width="23" height="22" viewBox="0 0 23 22" fill="none" xmlns="http://www.w3.org/2000/svg">
<path d="M22.5196 4.84171V6.45562H0.731842V4.84171C0.731842 4.41368 0.908418 4.00318 1.22272 3.70051C1.53703 3.39784 1.96332 3.22781 2.40782 3.22781H4.92179V0.806952C4.92179 0.592935 5.01007 0.387684 5.16723 0.236351C5.32438 0.0850179 5.53753 0 5.75977 0C5.98202 0 6.19517 0.0850179 6.35232 0.236351C6.50948 0.387684 6.59776 0.592935 6.59776 0.806952V3.22781H16.6536V0.806952C16.6536 0.592935 16.7419 0.387684 16.8991 0.236351C17.0562 0.0850179 17.2694 0 17.4916 0C17.7139 0 17.927 0.0850179 18.0842 0.236351C18.2413 0.387684 18.3296 0.592935 18.3296 0.806952V3.22781H20.8436C21.2881 3.22781 21.7144 3.39784 22.0287 3.70051C22.343 4.00318 22.5196 4.41368 22.5196 4.84171ZM0.731842 8.06952H22.5196V20.1738C22.5196 20.6018 22.343 21.0123 22.0287 21.315C21.7144 21.6177 21.2881 21.7877 20.8436 21.7877H2.40782C1.96332 21.7877 1.53703 21.6177 1.22272 21.315C0.908418 21.0123 0.731842 20.6018 0.731842 20.1738V8.06952ZM6.89106 13.8392L8.56704 15.3886C8.64627 15.4593 8.70553 15.5482 8.73925 15.647C8.77296 15.7458 8.78003 15.8513 8.75977 15.9534L8.3743 18.1484C8.35386 18.2668 8.36813 18.3884 8.4155 18.4994C8.46286 18.6105 8.54145 18.7066 8.64243 18.777C8.74341 18.8475 8.86279 18.8894 8.98714 18.898C9.11149 18.9067 9.23589 18.8818 9.34637 18.8262L11.3827 17.7933C11.4801 17.7458 11.5877 17.721 11.6969 17.721C11.8061 17.721 11.9138 17.7458 12.0112 17.7933L14.0475 18.8262C14.1564 18.8714 14.2758 18.8881 14.3935 18.8744C14.5112 18.8607 14.6231 18.8172 14.7177 18.7482C14.8122 18.6793 14.8861 18.5875 14.9318 18.4821C14.9775 18.3767 14.9933 18.2616 14.9777 18.1484L14.5922 15.9534C14.5719 15.8513 14.579 15.7458 14.6127 15.647C14.6464 15.5482 14.7057 15.4593 14.7849 15.3886L16.4609 13.8392C16.5487 13.7542 16.6105 13.6476 16.6396 13.5311C16.6687 13.4146 16.664 13.2925 16.6259 13.1784C16.5878 13.0643 16.5179 12.9624 16.4238 12.884C16.3296 12.8056 16.2149 12.7536 16.0922 12.7337L13.8045 12.419C13.701 12.4077 13.6018 12.3734 13.5145 12.3188C13.4272 12.2642 13.3544 12.1907 13.3017 12.1043L12.2793 10.1111C12.2236 10.0041 12.138 9.91415 12.0322 9.85128C11.9264 9.78842 11.8045 9.75513 11.6802 9.75513C11.5558 9.75513 11.434 9.78842 11.3282 9.85128C11.2223 9.91415 11.1368 10.0041 11.081 10.1111L10.0503 12.1043C10.0026 12.1983 9.93194 12.2797 9.84435 12.3415C9.75677 12.4034 9.65489 12.4438 9.54748 12.4593L7.26815 12.7741C7.15266 12.7972 7.04543 12.849 6.95703 12.9242C6.86863 12.9994 6.80212 13.0955 6.76405 13.2031C6.72599 13.3106 6.71768 13.4258 6.73995 13.5374C6.76222 13.6489 6.8143 13.753 6.89106 13.8392Z" fill="#495061"/>
</svg>
