<svg width="20" height="22" viewBox="0 0 20 22" fill="none" xmlns="http://www.w3.org/2000/svg">
<path d="M9.94273 11.3138C13.0553 11.3138 15.5996 8.76946 15.5996 5.65691C15.5996 2.54436 13.0553 0 9.94273 0C6.83018 0 4.28587 2.54436 4.28587 5.65691C4.28587 8.76946 6.83023 11.3138 9.94273 11.3138Z" fill="#495061"/>
<path d="M19.6509 15.8344C19.5027 15.4639 19.3051 15.118 19.0828 14.7969C17.9464 13.1171 16.1926 12.0055 14.2164 11.7338C13.9694 11.7091 13.6976 11.7584 13.5 11.9067C12.4625 12.6724 11.2274 13.0677 9.94279 13.0677C8.65822 13.0677 7.42311 12.6724 6.3856 11.9067C6.18796 11.7584 5.91623 11.6843 5.66922 11.7338C3.69301 12.0055 1.91444 13.1171 0.802828 14.7969C0.580507 15.118 0.382866 15.4886 0.234684 15.8344C0.160592 15.9826 0.185273 16.1556 0.259365 16.3038C0.457005 16.6496 0.704008 16.9955 0.92633 17.2919C1.27215 17.7613 1.6427 18.1812 2.06267 18.5764C2.40849 18.9222 2.80372 19.2434 3.199 19.5645C5.15049 21.022 7.49725 21.7877 9.91811 21.7877C12.339 21.7877 14.6857 21.0219 16.6372 19.5645C17.0324 19.2681 17.4277 18.9222 17.7736 18.5764C18.1688 18.1812 18.564 17.7612 18.9099 17.2919C19.1569 16.9707 19.3793 16.6496 19.5769 16.3038C19.7003 16.1556 19.725 15.9826 19.6509 15.8344Z" fill="#495061"/>
</svg>
