<svg width="27" height="38" viewBox="0 0 27 38" fill="none" xmlns="http://www.w3.org/2000/svg">
<path d="M23.7164 9.4766C23.7159 9.4761 23.7154 9.47561 23.7149 9.47511L14.8263 0.587779C14.4475 0.208781 13.9437 0 13.4079 0C12.8721 0 12.3684 0.208615 11.9894 0.587613L3.10547 9.47045C3.10248 9.47344 3.09949 9.4766 3.0965 9.47959C2.31847 10.262 2.3198 11.5315 3.10032 12.3119C3.45691 12.6687 3.92788 12.8753 4.43143 12.8969C4.45188 12.8989 4.4725 12.8999 4.49328 12.8999H4.84754V19.4404C4.84754 20.7347 5.9007 21.7877 7.19541 21.7877H10.6729C11.0253 21.7877 11.3113 21.502 11.3113 21.1494V16.0216C11.3113 15.431 11.7917 14.9506 12.3824 14.9506H14.4335C15.0242 14.9506 15.5046 15.431 15.5046 16.0216V21.1494C15.5046 21.502 15.7904 21.7877 16.143 21.7877H19.6205C20.9152 21.7877 21.9683 20.7347 21.9683 19.4404V12.8999H22.2968C22.8325 12.8999 23.3362 12.6913 23.7154 12.3123C24.4967 11.5305 24.4971 10.2589 23.7164 9.4766Z" fill="#495061"/>
<path d="M0.929839 35.1396V28.1609H1.87509V35.1396H0.929839ZM5.43487 35.1396V28.1609H6.38012V35.1396H5.43487ZM1.57341 31.962V31.0972H5.66615V31.962H1.57341ZM10.0511 35.2402C9.58179 35.2402 9.15944 35.1296 8.78402 34.9084C8.4086 34.6871 8.11028 34.3888 7.88905 34.0134C7.66782 33.6313 7.5572 33.2056 7.5572 32.7363C7.5572 32.2737 7.66782 31.8581 7.88905 31.4894C8.11028 31.114 8.4086 30.8156 8.78402 30.5944C9.15944 30.3732 9.58179 30.2626 10.0511 30.2626C10.5136 30.2626 10.9326 30.3732 11.308 30.5944C11.6902 30.8089 11.9918 31.1039 12.2131 31.4793C12.4343 31.8547 12.5449 32.2737 12.5449 32.7363C12.5449 33.2056 12.4343 33.6313 12.2131 34.0134C11.9918 34.3888 11.6902 34.6871 11.308 34.9084C10.9326 35.1296 10.5136 35.2402 10.0511 35.2402ZM10.0511 34.3653C10.3527 34.3653 10.6209 34.295 10.8555 34.1542C11.0902 34.0134 11.2745 33.8223 11.4086 33.581C11.5427 33.3329 11.6097 33.0514 11.6097 32.7363C11.6097 32.4279 11.5393 32.1531 11.3985 31.9117C11.2645 31.6704 11.0801 31.4827 10.8455 31.3486C10.6175 31.2078 10.3527 31.1374 10.0511 31.1374C9.74938 31.1374 9.48123 31.2078 9.24659 31.3486C9.01195 31.4827 8.8276 31.6704 8.69352 31.9117C8.55944 32.1531 8.4924 32.4279 8.4924 32.7363C8.4924 33.0514 8.55944 33.3329 8.69352 33.581C8.8276 33.8223 9.01195 34.0134 9.24659 34.1542C9.48123 34.295 9.74938 34.3653 10.0511 34.3653ZM13.5646 35.1396V30.3631H14.4697V35.1396H13.5646ZM16.7926 35.1396V32.2536C16.7926 31.8983 16.682 31.6201 16.4607 31.419C16.2462 31.2112 15.9747 31.1072 15.6462 31.1072C15.425 31.1072 15.2272 31.1542 15.0529 31.248C14.8786 31.3419 14.7378 31.4726 14.6306 31.6402C14.5233 31.8078 14.4697 32.0089 14.4697 32.2436L14.0976 32.0626C14.0976 31.7005 14.1747 31.3855 14.3289 31.1173C14.4898 30.8491 14.7077 30.6413 14.9825 30.4938C15.2574 30.3396 15.5658 30.2626 15.9077 30.2626C16.2429 30.2626 16.5445 30.3363 16.8127 30.4838C17.0875 30.6313 17.3021 30.8391 17.4563 31.1072C17.6172 31.3754 17.6976 31.6938 17.6976 32.0626V35.1396H16.7926ZM20.0205 35.1396V32.2536C20.0205 31.8983 19.9099 31.6201 19.6887 31.419C19.4741 31.2112 19.206 31.1072 18.8842 31.1072C18.663 31.1072 18.4618 31.1542 18.2808 31.248C18.1065 31.3419 17.9658 31.4726 17.8585 31.6402C17.7512 31.8078 17.6976 32.0089 17.6976 32.2436L17.1848 32.0626C17.2049 31.6938 17.3021 31.3788 17.4764 31.1173C17.6574 30.8491 17.8887 30.6413 18.1702 30.4938C18.4518 30.3396 18.7602 30.2626 19.0954 30.2626C19.444 30.2626 19.7557 30.3363 20.0306 30.4838C20.3054 30.6313 20.5233 30.8391 20.6842 31.1072C20.8518 31.3754 20.9356 31.6972 20.9356 32.0726V35.1396H20.0205ZM24.3794 35.2402C23.9034 35.2402 23.4744 35.1329 23.0923 34.9184C22.7101 34.6972 22.4085 34.3989 22.1872 34.0234C21.966 33.648 21.8554 33.2223 21.8554 32.7464C21.8554 32.2771 21.9627 31.8547 22.1772 31.4793C22.3984 31.1039 22.6934 30.8089 23.0621 30.5944C23.4375 30.3732 23.8565 30.2626 24.3191 30.2626C24.7615 30.2626 25.1504 30.3631 25.4856 30.5642C25.8275 30.7653 26.0923 31.0436 26.28 31.3989C26.4744 31.7542 26.5716 32.1564 26.5716 32.6056C26.5716 32.6726 26.5682 32.7464 26.5615 32.8268C26.5548 32.9005 26.5414 32.9877 26.5213 33.0883H22.4889V32.3341H26.0386L25.7068 32.6257C25.7068 32.3039 25.6498 32.0324 25.5358 31.8112C25.4219 31.5832 25.261 31.4089 25.0532 31.2883C24.8453 31.1609 24.5939 31.0972 24.299 31.0972C23.9906 31.0972 23.7191 31.1642 23.4844 31.2983C23.2498 31.4324 23.0688 31.6201 22.9414 31.8614C22.814 32.1028 22.7504 32.3877 22.7504 32.7162C22.7504 33.0514 22.8174 33.3464 22.9515 33.6011C23.0856 33.8491 23.2766 34.0436 23.5247 34.1843C23.7727 34.3184 24.0576 34.3855 24.3794 34.3855C24.6476 34.3855 24.8923 34.3385 25.1135 34.2447C25.3414 34.1508 25.5358 34.01 25.6967 33.8223L26.28 34.4156C26.052 34.6838 25.7705 34.8883 25.4353 35.029C25.1068 35.1698 24.7548 35.2402 24.3794 35.2402Z" fill="#495061"/>
</svg>
