<svg width="47" height="38" viewBox="0 0 47 38" fill="none" xmlns="http://www.w3.org/2000/svg">
<path d="M1.16942 35.1396V28.1609H1.83311L4.78954 33.0179H4.33702L7.29345 28.1609H7.95713V35.1396H7.01188V29.8201L7.23311 29.8804L4.90015 33.7117H4.23646L1.9035 29.8804L2.11468 29.8201V35.1396H1.16942ZM11.0128 35.1799L8.94127 30.3631H9.94686L11.4854 34.1341H11.1636L12.7826 30.3631H13.7882L11.5558 35.1799H11.0128ZM9.64518 37.1408L11.053 34.2547L11.5558 35.1799L10.6508 37.1408H9.64518ZM16.8621 35.1396V28.1609H17.8073V35.1396H16.8621ZM17.5056 35.1396V34.2748H21.5079V35.1396H17.5056ZM17.5056 31.9821V31.1575H21.176V31.9821H17.5056ZM17.5056 29.0257V28.1609H21.4576V29.0257H17.5056ZM24.2717 35.1396L22.0795 30.3631H23.0851L24.8449 34.3955H24.2616L26.0315 30.3631H26.9968L24.8046 35.1396H24.2717ZM29.7942 35.2402C29.3183 35.2402 28.8892 35.1329 28.5071 34.9184C28.125 34.6972 27.8233 34.3989 27.6021 34.0234C27.3808 33.648 27.2702 33.2223 27.2702 32.7464C27.2702 32.2771 27.3775 31.8547 27.592 31.4793C27.8132 31.1039 28.1082 30.8089 28.4769 30.5944C28.8523 30.3732 29.2713 30.2626 29.7339 30.2626C30.1764 30.2626 30.5652 30.3631 30.9004 30.5642C31.2423 30.7653 31.5071 31.0436 31.6948 31.3989C31.8892 31.7542 31.9864 32.1564 31.9864 32.6056C31.9864 32.6726 31.9831 32.7464 31.9764 32.8268C31.9696 32.9005 31.9562 32.9877 31.9361 33.0883H27.9037V32.3341H31.4534L31.1216 32.6257C31.1216 32.3039 31.0646 32.0324 30.9507 31.8112C30.8367 31.5832 30.6758 31.4089 30.468 31.2883C30.2602 31.1609 30.0088 31.0972 29.7138 31.0972C29.4054 31.0972 29.1339 31.1642 28.8993 31.2983C28.6646 31.4324 28.4836 31.6201 28.3562 31.8614C28.2289 32.1028 28.1652 32.3877 28.1652 32.7162C28.1652 33.0514 28.2322 33.3464 28.3663 33.6011C28.5004 33.8491 28.6914 34.0436 28.9395 34.1843C29.1875 34.3184 29.4724 34.3855 29.7942 34.3855C30.0624 34.3855 30.3071 34.3385 30.5283 34.2447C30.7562 34.1508 30.9507 34.01 31.1115 33.8223L31.6948 34.4156C31.4669 34.6838 31.1853 34.8883 30.8501 35.029C30.5216 35.1698 30.1696 35.2402 29.7942 35.2402ZM36.352 35.1396V32.3542C36.352 31.9922 36.238 31.6938 36.0101 31.4592C35.7822 31.2246 35.4872 31.1072 35.1252 31.1072C34.8838 31.1072 34.6693 31.1609 34.4816 31.2681C34.2939 31.3754 34.1464 31.5229 34.0391 31.7106C33.9319 31.8983 33.8782 32.1128 33.8782 32.3542L33.5062 32.143C33.5062 31.781 33.5866 31.4592 33.7475 31.1776C33.9084 30.8961 34.133 30.6748 34.4213 30.514C34.7095 30.3464 35.0347 30.2626 35.3967 30.2626C35.7587 30.2626 36.0771 30.3531 36.352 30.5341C36.6336 30.7151 36.8548 30.9531 37.0157 31.248C37.1766 31.5363 37.257 31.8447 37.257 32.1732V35.1396H36.352ZM32.9732 35.1396V30.3631H33.8782V35.1396H32.9732ZM39.1575 35.1396V28.362H40.0625V35.1396H39.1575ZM37.981 31.1877V30.3631H41.2391V31.1877H37.981ZM43.5459 35.2402C43.2777 35.2402 43.023 35.2067 42.7816 35.1396C42.547 35.0659 42.3291 34.9653 42.128 34.838C41.9269 34.7039 41.7526 34.5464 41.6051 34.3653L42.1883 33.7821C42.3626 33.9966 42.5637 34.1575 42.7917 34.2648C43.0196 34.3653 43.2744 34.4156 43.5559 34.4156C43.8375 34.4156 44.0554 34.3687 44.2095 34.2748C44.3637 34.1743 44.4408 34.0369 44.4408 33.8626C44.4408 33.6883 44.3771 33.5542 44.2498 33.4603C44.1291 33.3598 43.9716 33.2793 43.7771 33.219C43.5827 33.1519 43.3749 33.0883 43.1537 33.0279C42.9392 32.9609 42.7347 32.8771 42.5403 32.7765C42.3459 32.676 42.185 32.5385 42.0576 32.3642C41.9369 32.1899 41.8766 31.9586 41.8766 31.6704C41.8766 31.3821 41.947 31.1341 42.0878 30.9262C42.2285 30.7117 42.423 30.5475 42.671 30.4335C42.9258 30.3195 43.2308 30.2626 43.5861 30.2626C43.9615 30.2626 44.2933 30.3296 44.5816 30.4637C44.8766 30.591 45.1179 30.7855 45.3056 31.0469L44.7224 31.6302C44.5883 31.4558 44.4207 31.3218 44.2196 31.2279C44.0252 31.1341 43.804 31.0871 43.5559 31.0871C43.2945 31.0871 43.0933 31.1341 42.9526 31.2279C42.8185 31.3151 42.7514 31.4391 42.7514 31.6C42.7514 31.7609 42.8118 31.8849 42.9325 31.9721C43.0531 32.0592 43.2107 32.1329 43.4051 32.1933C43.6062 32.2536 43.814 32.3173 44.0285 32.3843C44.2431 32.4447 44.4475 32.5285 44.642 32.6357C44.8364 32.743 44.9939 32.8871 45.1146 33.0681C45.242 33.2491 45.3056 33.4871 45.3056 33.7821C45.3056 34.2313 45.1447 34.5866 44.823 34.848C44.5079 35.1095 44.0822 35.2402 43.5459 35.2402Z" fill="#495061"/>
<path d="M33.5196 4.84171V6.45562H11.7318V4.84171C11.7318 4.41368 11.9084 4.00318 12.2227 3.70051C12.537 3.39784 12.9633 3.22781 13.4078 3.22781H15.9218V0.806952C15.9218 0.592935 16.0101 0.387684 16.1672 0.236351C16.3244 0.0850179 16.5375 0 16.7598 0C16.982 0 17.1952 0.0850179 17.3523 0.236351C17.5095 0.387684 17.5978 0.592935 17.5978 0.806952V3.22781H27.6536V0.806952C27.6536 0.592935 27.7419 0.387684 27.8991 0.236351C28.0562 0.0850179 28.2694 0 28.4916 0C28.7139 0 28.927 0.0850179 29.0842 0.236351C29.2413 0.387684 29.3296 0.592935 29.3296 0.806952V3.22781H31.8436C32.2881 3.22781 32.7144 3.39784 33.0287 3.70051C33.343 4.00318 33.5196 4.41368 33.5196 4.84171ZM11.7318 8.06952H33.5196V20.1738C33.5196 20.6018 33.343 21.0123 33.0287 21.315C32.7144 21.6177 32.2881 21.7877 31.8436 21.7877H13.4078C12.9633 21.7877 12.537 21.6177 12.2227 21.315C11.9084 21.0123 11.7318 20.6018 11.7318 20.1738V8.06952ZM17.8911 13.8392L19.567 15.3886C19.6463 15.4593 19.7055 15.5482 19.7392 15.647C19.773 15.7458 19.78 15.8513 19.7598 15.9534L19.3743 18.1484C19.3539 18.2668 19.3681 18.3884 19.4155 18.4994C19.4629 18.6105 19.5415 18.7066 19.6424 18.777C19.7434 18.8475 19.8628 18.8894 19.9871 18.898C20.1115 18.9067 20.2359 18.8818 20.3464 18.8262L22.3827 17.7933C22.4801 17.7458 22.5877 17.721 22.6969 17.721C22.8061 17.721 22.9138 17.7458 23.0112 17.7933L25.0475 18.8262C25.1564 18.8714 25.2758 18.8881 25.3935 18.8744C25.5112 18.8607 25.6231 18.8172 25.7177 18.7482C25.8122 18.6793 25.8861 18.5875 25.9318 18.4821C25.9775 18.3767 25.9933 18.2616 25.9777 18.1484L25.5922 15.9534C25.5719 15.8513 25.579 15.7458 25.6127 15.647C25.6464 15.5482 25.7057 15.4593 25.7849 15.3886L27.4609 13.8392C27.5487 13.7542 27.6105 13.6476 27.6396 13.5311C27.6687 13.4146 27.664 13.2925 27.6259 13.1784C27.5878 13.0643 27.5179 12.9624 27.4238 12.884C27.3296 12.8056 27.2149 12.7536 27.0922 12.7337L24.8045 12.419C24.701 12.4077 24.6018 12.3734 24.5145 12.3188C24.4272 12.2642 24.3544 12.1907 24.3017 12.1043L23.2793 10.1111C23.2236 10.0041 23.138 9.91415 23.0322 9.85128C22.9264 9.78842 22.8045 9.75513 22.6802 9.75513C22.5558 9.75513 22.434 9.78842 22.3282 9.85128C22.2223 9.91415 22.1368 10.0041 22.081 10.1111L21.0503 12.1043C21.0026 12.1983 20.9319 12.2797 20.8444 12.3415C20.7568 12.4034 20.6549 12.4438 20.5475 12.4593L18.2682 12.7741C18.1527 12.7972 18.0454 12.849 17.957 12.9242C17.8686 12.9994 17.8021 13.0955 17.7641 13.2031C17.726 13.3106 17.7177 13.4258 17.74 13.5374C17.7622 13.6489 17.8143 13.753 17.8911 13.8392Z" fill="#495061"/>
</svg>
