<svg width="20" height="22" viewBox="0 0 20 22" fill="none" xmlns="http://www.w3.org/2000/svg">
<path d="M9.09118 22C10.7376 22 12.1148 20.8165 12.4311 19.25H5.75125C6.06768 20.8165 7.44493 22 9.09118 22Z" fill="#495061"/>
<path d="M15.4656 10.9993C15.4619 10.9993 15.4583 11.0001 15.4546 11.0001C11.9465 11.0001 9.09117 8.1217 9.09117 4.5835C9.09117 3.61082 9.31306 2.69136 9.6994 1.86455C9.49932 1.84541 9.29658 1.8335 9.09117 1.8335C5.5768 1.8335 2.72775 4.70619 2.72775 8.25011V10.8057C2.72775 12.6198 1.93959 14.3322 0.556844 15.511C0.0959297 15.9079 -0.108644 16.5404 0.0568127 17.1574C0.249568 17.8751 0.953174 18.3335 1.6914 18.3335H16.4864C17.261 18.3335 17.991 17.8274 18.1482 17.0621C18.27 16.4699 18.0609 15.8786 17.6055 15.4927C16.2837 14.3753 15.5192 12.7335 15.4656 10.9993Z" fill="#495061"/>
<path d="M20 4.58339C20 7.11469 17.9651 9.16661 15.4546 9.16661C12.9443 9.16661 10.9094 7.11469 10.9094 4.58339C10.9094 2.05209 12.9443 0 15.4546 0C17.9651 0 20 2.05209 20 4.58339Z" fill="#5C84E1"/>
</svg>
