<svg width="53" height="38" viewBox="0 0 53 38" fill="none" xmlns="http://www.w3.org/2000/svg">
<path d="M25.0912 22C26.7376 22 28.1148 20.8165 28.4311 19.25H21.7513C22.0677 20.8165 23.4449 22 25.0912 22Z" fill="#495061"/>
<path d="M31.4656 10.9993C31.4619 10.9993 31.4583 11.0001 31.4546 11.0001C27.9465 11.0001 25.0912 8.1217 25.0912 4.5835C25.0912 3.61082 25.3131 2.69136 25.6994 1.86455C25.4993 1.84541 25.2966 1.8335 25.0912 1.8335C21.5768 1.8335 18.7278 4.70619 18.7278 8.25011V10.8057C18.7278 12.6198 17.9396 14.3322 16.5568 15.511C16.0959 15.9079 15.8914 16.5404 16.0568 17.1574C16.2496 17.8751 16.9532 18.3335 17.6914 18.3335H32.4864C33.261 18.3335 33.991 17.8274 34.1482 17.0621C34.27 16.4699 34.0609 15.8786 33.6055 15.4927C32.2837 14.3753 31.5192 12.7335 31.4656 10.9993Z" fill="#495061"/>
<path d="M36 4.58339C36 7.11469 33.9651 9.16661 31.4546 9.16661C28.9443 9.16661 26.9094 7.11469 26.9094 4.58339C26.9094 2.05209 28.9443 0 31.4546 0C33.9651 0 36 2.05209 36 4.58339Z" fill="#5C84E1"/>
<path d="M1.21761 35V28.0212H1.8813L2.16287 29.1173V35H1.21761ZM6.04443 35L1.76063 29.2782L1.8813 28.0212L6.17516 33.733L6.04443 35ZM6.04443 35L5.76287 33.9642V28.0212H6.70812V35H6.04443ZM10.3781 35.1006C9.90884 35.1006 9.4865 34.9899 9.11108 34.7687C8.73566 34.5475 8.43733 34.2492 8.2161 33.8737C7.99488 33.4916 7.88426 33.0659 7.88426 32.5966C7.88426 32.1341 7.99488 31.7184 8.2161 31.3497C8.43733 30.9743 8.73566 30.676 9.11108 30.4547C9.4865 30.2335 9.90884 30.1229 10.3781 30.1229C10.8407 30.1229 11.2597 30.2335 11.6351 30.4547C12.0172 30.6693 12.3189 30.9642 12.5401 31.3397C12.7614 31.7151 12.872 32.1341 12.872 32.5966C12.872 33.0659 12.7614 33.4916 12.5401 33.8737C12.3189 34.2492 12.0172 34.5475 11.6351 34.7687C11.2597 34.9899 10.8407 35.1006 10.3781 35.1006ZM10.3781 34.2257C10.6798 34.2257 10.9479 34.1553 11.1826 34.0145C11.4172 33.8737 11.6016 33.6827 11.7357 33.4413C11.8697 33.1933 11.9368 32.9117 11.9368 32.5966C11.9368 32.2883 11.8664 32.0134 11.7256 31.7721C11.5915 31.5307 11.4072 31.343 11.1725 31.2089C10.9446 31.0682 10.6798 30.9978 10.3781 30.9978C10.0764 30.9978 9.80828 31.0682 9.57365 31.2089C9.33901 31.343 9.15465 31.5307 9.02057 31.7721C8.8865 32.0134 8.81946 32.2883 8.81946 32.5966C8.81946 32.9117 8.8865 33.1933 9.02057 33.4413C9.15465 33.6827 9.33901 33.8737 9.57365 34.0145C9.80828 34.1553 10.0764 34.2257 10.3781 34.2257ZM14.4785 35V28.2223H15.3835V35H14.4785ZM13.3019 31.048V30.2235H16.56V31.048H13.3019ZM17.4567 35V30.2235H18.3617V35H17.4567ZM17.9092 29.2682C17.7416 29.2682 17.6041 29.2145 17.4969 29.1073C17.3896 28.9933 17.336 28.8525 17.336 28.6849C17.336 28.524 17.3896 28.3899 17.4969 28.2827C17.6041 28.1687 17.7416 28.1117 17.9092 28.1117C18.0768 28.1117 18.2142 28.1687 18.3215 28.2827C18.4287 28.3899 18.4824 28.524 18.4824 28.6849C18.4824 28.8525 18.4287 28.9933 18.3215 29.1073C18.2142 29.2145 18.0768 29.2682 17.9092 29.2682ZM20.3792 35V29.3587C20.3792 29.0436 20.4463 28.7654 20.5803 28.524C20.7211 28.276 20.9155 28.0816 21.1636 27.9408C21.4116 27.7933 21.6965 27.7196 22.0183 27.7196C22.2664 27.7196 22.4843 27.7631 22.672 27.8503C22.8597 27.9307 23.034 28.0447 23.1949 28.1922L22.6016 28.7855C22.5144 28.7117 22.4239 28.6581 22.3301 28.6246C22.2362 28.5844 22.1323 28.5642 22.0183 28.5642C21.7837 28.5642 21.6027 28.638 21.4753 28.7855C21.3479 28.9263 21.2843 29.1173 21.2843 29.3587V35H20.3792ZM19.2027 31.048V30.2235H23.7379V31.048H19.2027ZM23.215 35V30.2235H24.1301V35H23.215ZM23.6675 29.7207C23.5066 29.7207 23.3725 29.667 23.2653 29.5598C23.158 29.4458 23.1044 29.305 23.1044 29.1374C23.1044 28.9765 23.158 28.8425 23.2653 28.7352C23.3725 28.6212 23.5066 28.5642 23.6675 28.5642C23.8418 28.5642 23.9792 28.6212 24.0798 28.7352C24.187 28.8425 24.2407 28.9765 24.2407 29.1374C24.2407 29.305 24.187 29.4458 24.0798 29.5598C23.9792 29.667 23.8418 29.7207 23.6675 29.7207ZM27.642 35.1006C27.1727 35.1006 26.747 34.9899 26.3649 34.7687C25.9895 34.5475 25.6912 34.2492 25.4699 33.8737C25.2554 33.4916 25.1481 33.0693 25.1481 32.6067C25.1481 32.1374 25.2554 31.7151 25.4699 31.3397C25.6912 30.9642 25.9895 30.6693 26.3649 30.4547C26.747 30.2335 27.1727 30.1229 27.642 30.1229C28.0107 30.1229 28.3526 30.1933 28.6677 30.3341C28.9828 30.4682 29.2543 30.6659 29.4822 30.9274L28.8789 31.5307C28.7314 31.3564 28.5504 31.2257 28.3358 31.1385C28.128 31.0447 27.8967 30.9978 27.642 30.9978C27.3403 30.9978 27.0722 31.0682 26.8375 31.2089C26.6029 31.343 26.4185 31.5307 26.2845 31.7721C26.1504 32.0134 26.0833 32.2916 26.0833 32.6067C26.0833 32.9218 26.1504 33.2 26.2845 33.4413C26.4185 33.6827 26.6029 33.8737 26.8375 34.0145C27.0722 34.1553 27.3403 34.2257 27.642 34.2257C27.8967 34.2257 28.128 34.1821 28.3358 34.095C28.5504 34.0011 28.7347 33.867 28.8889 33.6927L29.4822 34.2961C29.261 34.5508 28.9895 34.7486 28.6677 34.8894C28.3526 35.0302 28.0107 35.1006 27.642 35.1006ZM32.3129 35.1006C31.8771 35.1006 31.4816 34.9933 31.1263 34.7788C30.771 34.5575 30.4894 34.2592 30.2816 33.8838C30.0805 33.5084 29.9799 33.086 29.9799 32.6168C29.9799 32.1475 30.0805 31.7251 30.2816 31.3497C30.4894 30.9743 30.7676 30.676 31.1162 30.4547C31.4715 30.2335 31.8704 30.1229 32.3129 30.1229C32.6749 30.1229 32.9967 30.2 33.2782 30.3542C33.5665 30.5017 33.7978 30.7095 33.9721 30.9777C34.1464 31.2391 34.2436 31.5441 34.2637 31.8927V33.3307C34.2436 33.6726 34.1464 33.9777 33.9721 34.2458C33.8045 34.514 33.5766 34.7251 33.2883 34.8793C33.0067 35.0268 32.6816 35.1006 32.3129 35.1006ZM32.4637 34.2458C32.9129 34.2458 33.2749 34.095 33.5497 33.7933C33.8246 33.4849 33.962 33.0927 33.962 32.6168C33.962 32.2883 33.8983 32.0034 33.771 31.762C33.6503 31.514 33.476 31.3229 33.2481 31.1888C33.0201 31.048 32.7553 30.9777 32.4536 30.9777C32.152 30.9777 31.8838 31.048 31.6492 31.1888C31.4212 31.3296 31.2402 31.524 31.1062 31.7721C30.9788 32.0134 30.9151 32.2916 30.9151 32.6067C30.9151 32.9285 30.9788 33.2134 31.1062 33.4615C31.2402 33.7028 31.4246 33.8939 31.6592 34.0346C31.8939 34.1754 32.162 34.2458 32.4637 34.2458ZM33.9017 35V33.7128L34.0726 32.5464L33.9017 31.3899V30.2235H34.8168V35H33.9017ZM36.8488 35V28.2223H37.7539V35H36.8488ZM35.6723 31.048V30.2235H38.9304V31.048H35.6723ZM39.827 35V30.2235H40.7321V35H39.827ZM40.2795 29.2682C40.1119 29.2682 39.9745 29.2145 39.8673 29.1073C39.76 28.9933 39.7064 28.8525 39.7064 28.6849C39.7064 28.524 39.76 28.3899 39.8673 28.2827C39.9745 28.1687 40.1119 28.1117 40.2795 28.1117C40.4471 28.1117 40.5846 28.1687 40.6918 28.2827C40.7991 28.3899 40.8527 28.524 40.8527 28.6849C40.8527 28.8525 40.7991 28.9933 40.6918 29.1073C40.5846 29.2145 40.4471 29.2682 40.2795 29.2682ZM44.2479 35.1006C43.7786 35.1006 43.3563 34.9899 42.9809 34.7687C42.6055 34.5475 42.3071 34.2492 42.0859 33.8737C41.8647 33.4916 41.7541 33.0659 41.7541 32.5966C41.7541 32.1341 41.8647 31.7184 42.0859 31.3497C42.3071 30.9743 42.6055 30.676 42.9809 30.4547C43.3563 30.2335 43.7786 30.1229 44.2479 30.1229C44.7105 30.1229 45.1295 30.2335 45.5049 30.4547C45.887 30.6693 46.1887 30.9642 46.4099 31.3397C46.6312 31.7151 46.7418 32.1341 46.7418 32.5966C46.7418 33.0659 46.6312 33.4916 46.4099 33.8737C46.1887 34.2492 45.887 34.5475 45.5049 34.7687C45.1295 34.9899 44.7105 35.1006 44.2479 35.1006ZM44.2479 34.2257C44.5496 34.2257 44.8177 34.1553 45.0524 34.0145C45.287 33.8737 45.4714 33.6827 45.6055 33.4413C45.7395 33.1933 45.8066 32.9117 45.8066 32.5966C45.8066 32.2883 45.7362 32.0134 45.5954 31.7721C45.4613 31.5307 45.277 31.343 45.0423 31.2089C44.8144 31.0682 44.5496 30.9978 44.2479 30.9978C43.9462 30.9978 43.6781 31.0682 43.4434 31.2089C43.2088 31.343 43.0245 31.5307 42.8904 31.7721C42.7563 32.0134 42.6893 32.2883 42.6893 32.5966C42.6893 32.9117 42.7563 33.1933 42.8904 33.4413C43.0245 33.6827 43.2088 33.8737 43.4434 34.0145C43.6781 34.1553 43.9462 34.2257 44.2479 34.2257ZM51.1403 35V32.2145C51.1403 31.8525 51.0263 31.5542 50.7984 31.3196C50.5704 31.0849 50.2755 30.9676 49.9135 30.9676C49.6721 30.9676 49.4576 31.0212 49.2699 31.1285C49.0822 31.2358 48.9347 31.3832 48.8274 31.5709C48.7202 31.7587 48.6665 31.9732 48.6665 32.2145L48.2945 32.0034C48.2945 31.6413 48.3749 31.3196 48.5358 31.038C48.6967 30.7564 48.9213 30.5352 49.2095 30.3743C49.4978 30.2067 49.823 30.1229 50.185 30.1229C50.547 30.1229 50.8654 30.2134 51.1403 30.3944C51.4218 30.5754 51.6431 30.8134 51.804 31.1084C51.9649 31.3966 52.0453 31.705 52.0453 32.0335V35H51.1403ZM47.7615 35V30.2235H48.6665V35H47.7615Z" fill="#495061"/>
</svg>
